# xmcd
# 
# Track frame offsets:
#     150
#     17402
#     35002
#     50432
#     68478
#     84378
#     108606
#     126831
#     154806
#     175468
#     204756
#     221238
#     250210
# 
# Disc length: 3410
# 
# Revision: 1
# Processed by: cddbd v1.5.2PL0 Copyright (c) Steve Scherf et al.
# Submitted via: fre:ac v1.1beta1pre4
# 
DISCID=b00d500d
DTITLE=Chuck Pyle - Higher Ground
DYEAR=2007
DGENRE=Western
TTITLE0=Colorado
TTITLE1=Moonlight On The Colorado
TTITLE2=Keep'er Steady Cowgirl
TTITLE3=Little Town Tour
TTITLE4=Endless Sky
TTITLE5=Rocky Mountain High
TTITLE6=Mile High Feeling
TTITLE7=My Grandpa's Hands
TTITLE8=Here Comes The Water
TTITLE9=Over The San Luis
TTITLE10=Nighthorse
TTITLE11=Keep It Simple
TTITLE12=Little Town Tour Reprise
EXTD=
EXTT0=
EXTT1=
EXTT2=
EXTT3=
EXTT4=
EXTT5=
EXTT6=
EXTT7=
EXTT8=
EXTT9=
EXTT10=
EXTT11=
EXTT12=
PLAYORDER=
